<svg width="2000" height="661" viewBox="0 0 2000 661" fill="none" xmlns="http://www.w3.org/2000/svg">
<g clip-path="url(#clip0_324_44)">
<path d="M849.94 117.555H908.169V89.5535H849.94V66.6567H912.297V37.1958H812.195V170.162H916.752V140.586H849.94V117.555Z" fill="#464646"/>
<path d="M1027.78 114.388C1027.78 135.654 1019.73 141.411 1001.23 141.411C982.219 141.411 974.674 135.807 974.674 118.284V37.1958H936.68V119.263C936.68 162.85 970.297 172.58 1001.23 172.58C1031.58 172.58 1064.95 161.64 1065.04 114.868V37.1958H1027.78V114.388Z" fill="#464646"/>
<path d="M1189.53 128.764C1189.53 128.764 1182.64 121.701 1178.01 116.826C1191.16 108.554 1197.73 96.1176 1197.73 81.9915C1197.73 51.3219 1174.38 37.1958 1143.66 37.1958H1089.08V170.162H1127.09V126.326H1139.77C1146.58 134.118 1159.25 147.994 1159.25 147.994C1172.15 162.12 1187.26 171.62 1211.86 172.58L1219 144.118C1202.45 139.953 1197.07 136.556 1189.53 128.764ZM1134.83 99.284H1127.04V67.3859H1139.46C1155.35 67.3859 1159 71.7807 1158.94 82.7397C1158.94 92.4702 1152.86 99.284 1134.83 99.284Z" fill="#464646"/>
<path d="M1295.51 35.4876C1248.74 35.4876 1219.5 58.8639 1219.5 103.679C1219.5 145.807 1243.61 172.349 1291.84 172.349C1340.56 172.349 1367.37 147.994 1367.37 103.928C1367.37 62.7594 1345.42 35.4876 1295.51 35.4876ZM1292.3 142.639C1267.69 142.639 1257.47 125.826 1257.47 103.429C1257.47 81.0315 1267.69 65.1974 1293.76 65.1974H1293.8C1318.41 65.1974 1329.08 80.7819 1329.08 103.679C1329.08 126.575 1319.33 142.639 1292.3 142.639Z" fill="#464646"/>
<path d="M1438.57 37.1956H1384.01V170.162H1422V137.764H1428.82C1469.5 137.285 1493.37 118.764 1493.37 86.6351C1493.37 56.3879 1469.5 37.1956 1438.57 37.1956ZM1429.8 108.554H1422V67.1551H1434.43C1449.54 67.1551 1454.64 75.6769 1454.64 87.4419C1454.64 97.5758 1448.31 108.554 1429.8 108.554Z" fill="#464646"/>
<path d="M1545.66 117.555H1603.87V89.5535H1545.66V66.6567H1608.02V37.1958H1507.9V170.162H1612.4V140.586H1545.66V117.555Z" fill="#464646"/>
<path d="M1670.36 37.1958L1619.69 170.162H1657.94L1669.63 139.453H1715.19L1725.65 170.162H1764.88L1720.55 37.1958H1670.36ZM1680.09 111.989L1689.6 81.2814L1693.99 64.4684L1697.64 81.2814L1705.92 111.989H1680.09Z" fill="#464646"/>
<path d="M1869.99 37.1958V104.639L1870.97 118.764L1816.15 37.1958H1774.49V170.162H1812.28V107.325L1810.36 90.7622L1865.17 170.162H1907.75V37.1958H1869.99Z" fill="#464646"/>
<path d="M849.941 266.246H812.195V399.213H907.441V369.502H849.941V266.246Z" fill="#464646"/>
<path d="M959.45 266.246L908.784 399.212H947.028L958.72 368.504H1004.2L1014.67 399.212H1053.97L1009.64 266.246H959.45ZM969.011 341.039L978.61 310.331L983.008 293.518L986.655 310.331L994.833 341.039H969.011Z" fill="#464646"/>
<path d="M1161.07 333.709L1162.05 347.834L1107.24 266.246H1065.58V399.213H1103.31V336.396L1101.39 319.832L1156.2 399.213H1198.84V266.246H1161.07V333.709Z" fill="#464646"/>
<path d="M1301.24 369.752C1299.47 369.96 1297.68 370.043 1295.89 370.002C1272.73 370.002 1254.96 358.294 1254.96 332.001C1254.96 305.707 1270.93 295.957 1293.35 295.957C1306.51 295.957 1311.86 297.186 1326.97 300.833L1337.2 273.81C1323.56 267.761 1308.75 264.792 1293.83 265.115C1244.38 265.115 1216.62 286.054 1216.62 333.786C1216.62 379.81 1247.07 401.247 1292.37 401.247C1308.31 401.487 1324.14 398.645 1338.99 392.879V340.292H1301.24L1301.24 369.752Z" fill="#464646"/>
<path d="M1449.9 343.496C1449.9 364.685 1441.86 370.538 1423.35 370.538C1404.4 370.538 1396.72 364.877 1396.72 347.354V266.246H1358.8V348.314C1358.8 391.9 1392.42 401.65 1423.35 401.65C1453.8 401.65 1487.17 390.691 1487.17 343.938V266.246H1449.9V343.496Z" fill="#464646"/>
<path d="M1538.56 266.246L1487.9 399.212H1526.14L1537.83 368.504H1583.39L1593.85 399.212H1633.04L1588.71 266.246H1538.56ZM1548.31 341.039L1557.82 310.331L1562.19 293.518L1565.84 310.331L1574.14 341.039H1548.31Z" fill="#464646"/>
<path d="M1718.74 369.829C1716.96 370.036 1715.17 370.12 1713.38 370.078C1690.25 370.078 1672.45 358.371 1672.45 332.077C1672.45 305.782 1688.44 296.033 1710.85 296.033C1724 296.033 1729.38 297.262 1744.47 300.909L1754.7 273.886C1741.07 267.813 1726.27 264.818 1711.35 265.115C1661.89 265.115 1634.11 286.054 1634.11 333.785C1634.11 379.81 1664.58 401.247 1709.87 401.247C1725.81 401.487 1741.64 398.645 1756.5 392.879V340.292H1718.74V369.829Z" fill="#464646"/>
<path d="M1815.25 369.713V346.568H1873.46V318.565H1815.25V295.688H1877.61V266.246H1777.49V399.213L1881.99 399.174V369.713H1815.25Z" fill="#464646"/>
<path d="M863.585 630.608H812.195V497.672H862.611C909.373 497.672 942.983 517.637 942.983 563.896C942.983 609.913 912.539 630.608 863.585 630.608ZM862.124 527.132H849.703V601.147H865.777C894.76 601.147 905.232 588.974 905.232 565.601C905.232 540.036 892.325 527.132 862.124 527.132Z" fill="#464646"/>
<path d="M1044.83 630.608L1034.36 599.931H988.815L977.124 630.608H938.887L989.546 497.672H1039.72L1084.04 630.608H1044.83ZM1016.82 541.741L1013.17 524.94L1008.79 541.741L999.287 572.418H1025.1L1016.82 541.741Z" fill="#464646"/>
<path d="M1146.13 527.132V630.608H1108.38V527.132H1066.73V497.671H1187.77V527.132H1146.13Z" fill="#464646"/>
<path d="M1277.18 630.608L1266.7 599.931H1221.16L1209.47 630.608H1171.23L1221.89 497.672H1272.06L1316.39 630.608H1277.18ZM1249.17 541.741L1245.52 524.94L1241.13 541.741L1231.63 572.418H1257.45L1249.17 541.741Z" fill="#464646"/>
<path d="M1372.59 622.874L1382.94 594.463C1399.08 599.278 1407.99 600.723 1423.89 600.723C1441.71 600.723 1446.77 596.148 1446.77 591.331C1446.77 583.146 1430.39 580.497 1413.53 574.478C1395.23 568.218 1376.2 558.106 1376.2 533.548C1376.2 507.062 1406.07 496.95 1432.8 496.95C1453.75 496.95 1461.7 497.673 1480.49 504.655L1472.06 531.862C1458.33 528.491 1448.21 526.805 1433.76 526.805C1419.31 526.805 1417.62 530.657 1417.62 533.548C1417.62 540.529 1431.11 544.382 1446.29 549.92C1466.28 557.143 1489.4 566.773 1489.4 590.128C1489.4 620.224 1455.44 631.059 1424.37 631.059C1399.56 631.059 1386.8 629.374 1372.59 622.874Z" fill="#464646"/>
<path d="M1506.26 497.674H1565.03C1595.61 497.674 1619.22 517.898 1619.22 547.754C1619.22 579.535 1595.61 599.52 1555.39 599.52H1543.83V629.135H1506.26V497.674ZM1543.83 570.627H1556.35C1574.66 570.627 1580.92 558.588 1580.92 548.477C1580.92 536.919 1575.86 527.29 1560.93 527.29H1543.83L1543.83 570.627Z" fill="#464646"/>
<path d="M1664.5 497.674H1714.11L1757.94 629.134H1717.96L1710.02 601.205H1662.33L1653.18 629.134H1614.4L1664.5 497.674ZM1701.83 573.998L1687.86 524.641L1671.48 573.998H1701.83Z" fill="#464646"/>
<path d="M1865.37 628.171C1856.21 630.337 1847.3 631.06 1835.98 631.06C1786.61 631.06 1760.36 607.465 1760.36 564.368C1760.36 518.861 1786.13 496.471 1835.26 496.471C1855.01 496.471 1867.05 499.6 1879.58 505.138L1869.46 531.864C1854.77 528.01 1849.71 527.289 1835.5 527.047C1813.34 526.807 1798.17 538.123 1798.17 562.682C1798.17 587.241 1814.07 600.242 1839.35 600.242C1851.88 600.242 1859.1 599.279 1871.63 596.15C1874.28 605.298 1877.17 614.688 1879.82 623.837C1874.76 625.763 1869.94 627.208 1865.37 628.171Z" fill="#464646"/>
<path d="M1896.68 629.134V497.674H1995.67V526.807H1934.01V549.439H1991.57V577.128H1934.01V600.001H2000V629.133L1896.68 629.134Z" fill="#464646"/>
<path d="M102.18 0H11.5072C5.15194 0 0 5.15028 0 11.5035V102.147C0 108.501 5.15194 113.651 11.5072 113.651H102.18C108.535 113.651 113.687 108.501 113.687 102.147V11.5035C113.687 5.15028 108.535 0 102.18 0Z" fill="#ACC3EA"/>
<path d="M238.881 0H148.208C141.853 0 136.701 5.15028 136.701 11.5035V102.147C136.701 108.501 141.853 113.651 148.208 113.651H238.881C245.237 113.651 250.389 108.501 250.389 102.147V11.5035C250.389 5.15028 245.237 0 238.881 0Z" fill="#5381D3"/>
<path d="M375.583 0H284.91C278.554 0 273.402 5.15028 273.402 11.5035V102.147C273.402 108.501 278.554 113.651 284.91 113.651H375.583C381.938 113.651 387.09 108.501 387.09 102.147V11.5035C387.09 5.15028 381.938 0 375.583 0Z" fill="#0F2651"/>
<path d="M238.881 136.657H148.208C141.853 136.657 136.701 141.808 136.701 148.161V238.805C136.701 245.158 141.853 250.308 148.208 250.308H238.881C245.237 250.308 250.389 245.158 250.389 238.805V148.161C250.389 141.808 245.237 136.657 238.881 136.657Z" fill="#ACC3EA"/>
<path d="M375.583 136.657H284.91C278.554 136.657 273.402 141.808 273.402 148.161V238.805C273.402 245.158 278.554 250.308 284.91 250.308H375.583C381.938 250.308 387.09 245.158 387.09 238.805V148.161C387.09 141.808 381.938 136.657 375.583 136.657Z" fill="#5381D3"/>
<path d="M512.284 136.657H421.611C415.255 136.657 410.104 141.808 410.104 148.161V238.805C410.104 245.158 415.255 250.308 421.611 250.308H512.284C518.639 250.308 523.791 245.158 523.791 238.805V148.161C523.791 141.808 518.639 136.657 512.284 136.657Z" fill="#0F2651"/>
<path d="M375.583 273.315H284.91C278.554 273.315 273.402 278.465 273.402 284.818V375.462C273.402 381.816 278.554 386.966 284.91 386.966H375.583C381.938 386.966 387.09 381.816 387.09 375.462V284.818C387.09 278.465 381.938 273.315 375.583 273.315Z" fill="#E8DCAC"/>
<path d="M512.284 273.315H421.611C415.255 273.315 410.104 278.465 410.104 284.818V375.462C410.104 381.816 415.255 386.966 421.611 386.966H512.284C518.639 386.966 523.791 381.816 523.791 375.462V284.818C523.791 278.465 518.639 273.315 512.284 273.315Z" fill="#E8C638"/>
<path d="M648.986 273.315H558.313C551.958 273.315 546.806 278.465 546.806 284.818V375.462C546.806 381.816 551.958 386.966 558.313 386.966H648.986C655.341 386.966 660.493 381.816 660.493 375.462V284.818C660.493 278.465 655.341 273.315 648.986 273.315Z" fill="#4F430F"/>
<path d="M238.881 409.972H148.208C141.853 409.972 136.701 415.122 136.701 421.476V512.12C136.701 518.473 141.853 523.623 148.208 523.623H238.881C245.237 523.623 250.389 518.473 250.389 512.12V421.476C250.389 415.122 245.237 409.972 238.881 409.972Z" fill="#ACC3EA"/>
<path d="M375.583 409.972H284.91C278.554 409.972 273.402 415.122 273.402 421.476V512.12C273.402 518.473 278.554 523.623 284.91 523.623H375.583C381.938 523.623 387.09 518.473 387.09 512.12V421.476C387.09 415.122 381.938 409.972 375.583 409.972Z" fill="#5381D3"/>
<path d="M512.284 409.972H421.611C415.255 409.972 410.104 415.122 410.104 421.476V512.12C410.104 518.473 415.255 523.623 421.611 523.623H512.284C518.639 523.623 523.791 518.473 523.791 512.12V421.476C523.791 415.122 518.639 409.972 512.284 409.972Z" fill="#0F2651"/>
<path d="M102.18 546.63H11.5072C5.15194 546.63 0 551.78 0 558.133V648.777C0 655.131 5.15194 660.281 11.5072 660.281H102.18C108.535 660.281 113.687 655.131 113.687 648.777V558.133C113.687 551.78 108.535 546.63 102.18 546.63Z" fill="#ACC3EA"/>
<path d="M238.881 546.63H148.208C141.853 546.63 136.701 551.78 136.701 558.133V648.777C136.701 655.131 141.853 660.281 148.208 660.281H238.881C245.237 660.281 250.389 655.131 250.389 648.777V558.133C250.389 551.78 245.237 546.63 238.881 546.63Z" fill="#5381D3"/>
<path d="M375.583 546.63H284.91C278.554 546.63 273.402 551.78 273.402 558.133V648.777C273.402 655.131 278.554 660.281 284.91 660.281H375.583C381.938 660.281 387.09 655.131 387.09 648.777V558.133C387.09 551.78 381.938 546.63 375.583 546.63Z" fill="#0F2651"/>
</g>
<defs>
<clipPath id="clip0_324_44">
<rect width="2000" height="660.281" fill="white"/>
</clipPath>
</defs>
</svg>
